<?xml version="1.0" encoding="UTF-8"?> <svg xmlns="http://www.w3.org/2000/svg" xmlns:xlink="http://www.w3.org/1999/xlink" version="1.0" x="0px" y="0px" width="634.3px" height="206.1px" viewBox="0 0 634.3 206.1" style="enable-background:new 0 0 634.3 206.1;" xml:space="preserve"> <style type="text/css"> .st0{fill:url(#SVGID_1_);} .st1{fill:url(#SVGID_00000059297206271229889280000015186578054237394321_);} .st2{fill:url(#SVGID_00000016777894273446853610000007170610338484060578_);} .st3{fill:url(#SVGID_00000173854494913964408090000010298874498389320602_);} .st4{fill:url(#SVGID_00000104667380578239262390000006863946262363090615_);} .st5{fill:url(#SVGID_00000001659084340451758650000015595183692498459022_);} .st6{fill:url(#SVGID_00000059990661464411606300000008355542713690327978_);} .st7{fill:url(#SVGID_00000052067157089472577690000008889320573041212344_);} .st8{fill:url(#SVGID_00000074428613669665382440000007437453562963676350_);} .st9{fill:url(#SVGID_00000140016361767895589980000008827404521952095872_);} .st10{fill:url(#SVGID_00000179621396262591272040000007893972125717293217_);} .st11{fill:url(#SVGID_00000160191846081477408970000008061734953391364025_);} .st12{fill:url(#SVGID_00000078749140138088418050000002750030241302158987_);} .st13{fill:url(#SVGID_00000070833236827122687630000009054487824946159776_);} .st14{fill:url(#SVGID_00000050627752744093308890000014864458269053580976_);} </style> <g id="Layer_1"> <g> <g> <path d="M17.9,140.5H29v19.6c0,4.1-0.4,7.3-1.1,9.4c-0.7,2.1-2.2,4-4.4,5.5c-2.2,1.5-5,2.2-8.5,2.2c-3.6,0-6.5-0.5-8.5-1.5 c-2-1-3.5-2.4-4.6-4.3c-1.1-1.9-1.7-4.2-1.9-7l10.7-1.5c0,1.6,0.2,2.8,0.4,3.5c0.3,0.8,0.7,1.4,1.3,1.9c0.4,0.3,1,0.5,1.8,0.5 c1.2,0,2.2-0.5,2.7-1.4c0.6-0.9,0.9-2.5,0.9-4.7V140.5z"></path> <path d="M33.6,140.5h16.6c3.3,0,5.9,0.4,7.9,1.3c2,0.9,3.7,2.2,5,3.8c1.3,1.7,2.3,3.6,2.9,5.8c0.6,2.2,0.9,4.5,0.9,7 c0,3.9-0.4,6.8-1.3,9s-2.1,3.9-3.7,5.3c-1.6,1.4-3.2,2.4-5,2.9c-2.4,0.7-4.7,1-6.6,1H33.6V140.5z M44.7,148.7v19.7h2.7 c2.3,0,4-0.3,5-0.8c1-0.5,1.8-1.4,2.3-2.7c0.6-1.3,0.8-3.4,0.8-6.3c0-3.8-0.6-6.4-1.9-7.9c-1.2-1.4-3.3-2.1-6.2-2.1H44.7z"></path> <path d="M79.4,140.5H107v7.8H90.6v6.3h14v7.3h-14v14.7H79.4V140.5z"></path> <path d="M132.5,170.6h-12.7l-1.8,6h-11.4l13.6-36.1h12.2l13.6,36.1h-11.7L132.5,170.6z M130.2,162.8l-4-13l-3.9,13H130.2z"></path> <path d="M172.6,161.8l9.8,3c-0.7,2.7-1.7,5-3.1,6.9c-1.4,1.8-3.2,3.2-5.3,4.2s-4.8,1.4-8,1.4c-3.9,0-7.1-0.6-9.6-1.7 s-4.6-3.1-6.4-6s-2.7-6.5-2.7-11c0-6,1.6-10.6,4.8-13.8s7.7-4.8,13.5-4.8c4.5,0,8.1,0.9,10.7,2.8c2.6,1.8,4.5,4.7,5.8,8.5 l-9.8,2.2c-0.3-1.1-0.7-1.9-1.1-2.4c-0.6-0.9-1.4-1.5-2.3-2c-0.9-0.5-1.9-0.7-3-0.7c-2.5,0-4.5,1-5.8,3c-1,1.5-1.5,3.9-1.5,7.1 c0,4,0.6,6.7,1.8,8.2s2.9,2.2,5.1,2.2c2.1,0,3.7-0.6,4.8-1.8C171.4,165.8,172.2,164.1,172.6,161.8z"></path> <path d="M187.9,140.5H199v12.6h12.2v-12.6h11.2v36.1h-11.2V162H199v14.6h-11.2V140.5z"></path> <path d="M229.8,140.5h18.5c4,0,7.1,1,9.1,2.9c2,1.9,3,4.7,3,8.2c0,3.6-1.1,6.5-3.3,8.5s-5.5,3.1-10,3.1H241v13.4h-11.2V140.5z M241,155.9h2.7c2.2,0,3.7-0.4,4.5-1.1c0.9-0.7,1.3-1.7,1.3-2.9c0-1.1-0.4-2.1-1.1-2.9c-0.8-0.8-2.2-1.2-4.3-1.2H241V155.9z"></path> <path d="M264.2,140.5h11.2v27.2h17.4v8.9h-28.6V140.5z"></path> <path d="M320.1,170.6h-12.7l-1.8,6h-11.4l13.6-36.1H320l13.6,36.1h-11.7L320.1,170.6z M317.8,162.8l-4-13l-3.9,13H317.8z"></path> <path d="M337.2,140.5h10.4l13.6,20v-20h10.5v36.1h-10.5l-13.5-19.8v19.8h-10.5V140.5z"></path> <path d="M402.6,140.5h11.1V162c0,2.1-0.3,4.1-1,6c-0.7,1.9-1.7,3.6-3.1,5s-2.9,2.4-4.5,3c-2.2,0.8-4.8,1.2-7.8,1.2 c-1.8,0-3.7-0.1-5.8-0.4c-2.1-0.2-3.8-0.7-5.2-1.5c-1.4-0.7-2.7-1.8-3.8-3.1s-1.9-2.7-2.4-4.2c-0.7-2.3-1-4.3-1-6.1v-21.5h11.1 v22c0,2,0.5,3.5,1.6,4.6c1.1,1.1,2.6,1.7,4.5,1.7c1.9,0,3.4-0.5,4.5-1.6c1.1-1.1,1.6-2.6,1.6-4.6V140.5z"></path> <path d="M421.2,140.5h10.4l13.6,20v-20h10.5v36.1h-10.5l-13.5-19.8v19.8h-10.5V140.5z"></path> <path d="M481.3,163.5V156h17.2v15.4c-3.3,2.2-6.2,3.8-8.8,4.6s-5.5,1.2-9,1.2c-4.3,0-7.8-0.7-10.5-2.2c-2.7-1.5-4.8-3.6-6.3-6.5 c-1.5-2.9-2.2-6.2-2.2-9.9c0-3.9,0.8-7.4,2.4-10.3c1.6-2.9,4-5.1,7.1-6.6c2.4-1.2,5.7-1.7,9.9-1.7c4,0,7,0.4,9,1.1 s3.6,1.8,4.9,3.4c1.3,1.5,2.3,3.4,2.9,5.8l-10.8,1.9c-0.4-1.4-1.2-2.4-2.3-3.1c-1.1-0.7-2.4-1.1-4.1-1.1c-2.4,0-4.4,0.8-5.8,2.5 c-1.5,1.7-2.2,4.4-2.2,8.1c0,3.9,0.7,6.7,2.2,8.4c1.5,1.7,3.5,2.5,6.1,2.5c1.2,0,2.4-0.2,3.6-0.5c1.1-0.4,2.4-1,3.9-1.8v-3.4 H481.3z"></path> <path d="M519.4,140.5h33.9v8.9h-11.4v27.2h-11.2v-27.2h-11.4V140.5z"></path> <path d="M574.8,163.5V156H592v15.4c-3.3,2.2-6.2,3.8-8.8,4.6s-5.5,1.2-9,1.2c-4.3,0-7.8-0.7-10.5-2.2c-2.7-1.5-4.8-3.6-6.3-6.5 c-1.5-2.9-2.2-6.2-2.2-9.9c0-3.9,0.8-7.4,2.4-10.3c1.6-2.9,4-5.1,7.1-6.6c2.4-1.2,5.7-1.7,9.9-1.7c4,0,7,0.4,9,1.1 s3.6,1.8,4.9,3.4c1.3,1.5,2.3,3.4,2.9,5.8l-10.8,1.9c-0.4-1.4-1.2-2.4-2.3-3.1c-1.1-0.7-2.4-1.1-4.1-1.1c-2.4,0-4.4,0.8-5.8,2.5 c-1.5,1.7-2.2,4.4-2.2,8.1c0,3.9,0.7,6.7,2.2,8.4c1.5,1.7,3.5,2.5,6.1,2.5c1.2,0,2.4-0.2,3.6-0.5c1.1-0.4,2.4-1,3.9-1.8v-3.4 H574.8z"></path> <path d="M620.8,170.6h-12.7l-1.8,6H595l13.6-36.1h12.2l13.6,36.1h-11.7L620.8,170.6z M618.5,162.8l-4-13l-3.9,13H618.5z"></path> </g> <g> <linearGradient id="SVGID_1_" gradientUnits="userSpaceOnUse" x1="0" y1="73.3608" x2="400.0792" y2="73.3608"> <stop offset="0" style="stop-color:#00A0DB"></stop> <stop offset="1" style="stop-color:#4867E4"></stop> </linearGradient> <polygon class="st0" points="409.3,19.4 100.1,19.4 0,127.3 309.1,127.3 "></polygon> <g> <path d="M444.9,0L444.9,0c-0.8,0-1.5,0.3-2.1,0.9l-79.8,86c-1.7,1.8-0.4,4.8,2.1,4.8l0,0c0.8,0,1.5-0.3,2.1-0.9l79.8-86 C448.7,3,447.4,0,444.9,0z"></path> <path d="M411.4,0L411.4,0c-0.8,0-1.5,0.3-2.1,0.9l-79.8,86c-1.7,1.8-0.4,4.8,2.1,4.8l0,0c0.8,0,1.5-0.3,2.1-0.9l79.8-86 C415.2,3,413.9,0,411.4,0z"></path> <path d="M377.9,0L377.9,0c-0.8,0-1.5,0.3-2.1,0.9l-79.8,86c-1.7,1.8-0.4,4.8,2.1,4.8l0,0c0.8,0,1.5-0.3,2.1-0.9l79.8-86 C381.7,3,380.4,0,377.9,0z"></path> <path d="M344.5,0L344.5,0c-0.8,0-1.5,0.3-2.1,0.9l-79.8,86c-1.7,1.8-0.4,4.8,2.1,4.8h0c0.8,0,1.5-0.3,2.1-0.9l79.8-86 C348.2,3,346.9,0,344.5,0z"></path> <path d="M311,0L311,0c-0.8,0-1.5,0.3-2.1,0.9l-79.8,86c-1.7,1.8-0.4,4.8,2.1,4.8l0,0c0.8,0,1.5-0.3,2.1-0.9l79.8-86 C314.7,3,313.4,0,311,0z"></path> <path d="M277.5,0L277.5,0c-0.8,0-1.5,0.3-2.1,0.9l-79.8,86c-1.7,1.8-0.4,4.8,2.1,4.8l0,0c0.8,0,1.5-0.3,2.1-0.9l79.8-86 C281.2,3,280,0,277.5,0z"></path> <path d="M244,0L244,0c-0.8,0-1.5,0.3-2.1,0.9l-79.8,86c-1.7,1.8-0.4,4.8,2.1,4.8l0,0c0.8,0,1.5-0.3,2.1-0.9l79.8-86 C247.8,3,246.5,0,244,0z"></path> <path d="M210.5,0L210.5,0c-0.8,0-1.5,0.3-2.1,0.9l-79.8,86c-1.7,1.8-0.4,4.8,2.1,4.8l0,0c0.8,0,1.5-0.3,2.1-0.9l79.8-86 C214.3,3,213,0,210.5,0z"></path> <path d="M177,0L177,0c-0.8,0-1.5,0.3-2.1,0.9l-79.8,86c-1.7,1.8-0.4,4.8,2.1,4.8h0c0.8,0,1.5-0.3,2.1-0.9l79.8-86 C180.8,3,179.5,0,177,0z"></path> <path d="M143.5,0L143.5,0c-0.8,0-1.5,0.3-2.1,0.9l-79.8,86c-1.7,1.8-0.4,4.8,2.1,4.8h0c0.8,0,1.5-0.3,2.1-0.9l79.8-86 C147.3,3,146,0,143.5,0z"></path> </g> </g> <g> <linearGradient id="SVGID_00000001642246214131299480000018344749308962135700_" gradientUnits="userSpaceOnUse" x1="-1.8099" y1="197.5763" x2="300.5185" y2="197.5763"> <stop offset="0" style="stop-color:#00A0DB"></stop> <stop offset="1" style="stop-color:#4867E4"></stop> </linearGradient> <polygon style="fill:url(#SVGID_00000001642246214131299480000018344749308962135700_);" points="5.1,198.8 13,198.8 13,195.5 5.1,195.5 5.1,192.9 13.6,192.9 13.6,189.4 0,189.4 0,205.8 13.9,205.8 13.9,202.1 5.1,202.1 "></polygon> <linearGradient id="SVGID_00000152232154470838046450000015421017559988142760_" gradientUnits="userSpaceOnUse" x1="-1.8099" y1="197.5763" x2="300.5185" y2="197.5763"> <stop offset="0" style="stop-color:#00A0DB"></stop> <stop offset="1" style="stop-color:#4867E4"></stop> </linearGradient> <polygon style="fill:url(#SVGID_00000152232154470838046450000015421017559988142760_);" points="21.7,189.4 16.6,189.4 16.6,205.8 29.6,205.8 29.6,201.7 21.7,201.7 "></polygon> <linearGradient id="SVGID_00000168100684003692859920000004202294486561329543_" gradientUnits="userSpaceOnUse" x1="-1.8099" y1="197.5763" x2="300.5185" y2="197.5763"> <stop offset="0" style="stop-color:#00A0DB"></stop> <stop offset="1" style="stop-color:#4867E4"></stop> </linearGradient> <polygon style="fill:url(#SVGID_00000168100684003692859920000004202294486561329543_);" points="37,198.8 44.9,198.8 44.9,195.5 37,195.5 37,192.9 45.5,192.9 45.5,189.4 31.9,189.4 31.9,205.8 45.8,205.8 45.8,202.1 37,202.1 "></polygon> <linearGradient id="SVGID_00000092444551470787281120000012250138047287191174_" gradientUnits="userSpaceOnUse" x1="-1.8099" y1="197.5763" x2="300.5185" y2="197.5763"> <stop offset="0" style="stop-color:#00A0DB"></stop> <stop offset="1" style="stop-color:#4867E4"></stop> </linearGradient> <polygon style="fill:url(#SVGID_00000092444551470787281120000012250138047287191174_);" points="65.7,189.4 58.9,189.4 53.6,195.6 53.6,189.4 48.5,189.4 48.5,205.8 53.6,205.8 53.6,201.8 56.2,199 59.7,205.8 66,205.8 59.7,195.6 "></polygon> <linearGradient id="SVGID_00000145059712378469000420000014036687600024296616_" gradientUnits="userSpaceOnUse" x1="-1.8099" y1="197.5763" x2="300.5185" y2="197.5763"> <stop offset="0" style="stop-color:#00A0DB"></stop> <stop offset="1" style="stop-color:#4867E4"></stop> </linearGradient> <polygon style="fill:url(#SVGID_00000145059712378469000420000014036687600024296616_);" points="66.5,193.4 71.7,193.4 71.7,205.8 76.8,205.8 76.8,193.4 81.9,193.4 81.9,189.4 66.5,189.4 "></polygon> <linearGradient id="SVGID_00000093859089642706756690000013531376456155323838_" gradientUnits="userSpaceOnUse" x1="-1.8099" y1="197.5763" x2="300.5185" y2="197.5763"> <stop offset="0" style="stop-color:#00A0DB"></stop> <stop offset="1" style="stop-color:#4867E4"></stop> </linearGradient> <path style="fill:url(#SVGID_00000093859089642706756690000013531376456155323838_);" d="M97.3,200c-0.4-0.4-0.6-0.7-0.8-0.9 c-0.3-0.2-0.7-0.4-1.3-0.6c0.8-0.2,1.4-0.4,1.8-0.7c0.7-0.4,1.2-0.9,1.6-1.6c0.4-0.7,0.6-1.4,0.6-2.4c0-1-0.3-1.9-0.8-2.7 c-0.5-0.7-1.2-1.2-2-1.5c-0.8-0.3-2-0.4-3.6-0.4h-8.5v16.4h5.1v-6.7h0.4c0.5,0,0.9,0.1,1.2,0.4c0.3,0.2,0.6,0.6,0.9,1.3l2.7,5 h5.7L98,201C97.9,200.8,97.7,200.5,97.3,200z M93.7,195.3c-0.2,0.3-0.5,0.4-0.8,0.5c-0.7,0.1-1.1,0.2-1.3,0.2h-2.1v-3.3h2.2 c0.9,0,1.6,0.1,1.9,0.4c0.3,0.3,0.5,0.7,0.5,1.2C94,194.7,93.9,195,93.7,195.3z"></path> <linearGradient id="SVGID_00000137131315683266397870000002351286561021401505_" gradientUnits="userSpaceOnUse" x1="-1.8099" y1="197.5763" x2="300.5185" y2="197.5763"> <stop offset="0" style="stop-color:#00A0DB"></stop> <stop offset="1" style="stop-color:#4867E4"></stop> </linearGradient> <path style="fill:url(#SVGID_00000137131315683266397870000002351286561021401505_);" d="M109.6,189.1c-2.7,0-4.8,0.7-6.2,2.2 c-1.5,1.5-2.2,3.6-2.2,6.3c0,1.9,0.4,3.5,1.1,4.8c0.8,1.3,1.7,2.2,3,2.8s2.8,0.9,4.6,0.9c1.8,0,3.3-0.3,4.6-1 c1.2-0.7,2.2-1.6,2.8-2.9s1-2.8,1-4.7c0-2.6-0.7-4.7-2.2-6.2S112.3,189.1,109.6,189.1z M112.1,201.2c-0.6,0.7-1.4,1.1-2.5,1.1 c-1.1,0-1.9-0.4-2.5-1.1c-0.6-0.7-0.9-1.9-0.9-3.6c0-1.7,0.3-2.9,0.9-3.6c0.6-0.7,1.4-1.1,2.5-1.1c1.1,0,1.9,0.4,2.5,1.1 c0.6,0.7,0.9,1.8,0.9,3.4C113,199.2,112.7,200.5,112.1,201.2z"></path> <linearGradient id="SVGID_00000182496873212701862970000013900286255339473584_" gradientUnits="userSpaceOnUse" x1="-1.8099" y1="197.5763" x2="300.5185" y2="197.5763"> <stop offset="0" style="stop-color:#00A0DB"></stop> <stop offset="1" style="stop-color:#4867E4"></stop> </linearGradient> <polygon style="fill:url(#SVGID_00000182496873212701862970000013900286255339473584_);" points="119.1,193.4 124.3,193.4 124.3,205.8 129.4,205.8 129.4,193.4 134.5,193.4 134.5,189.4 119.1,189.4 "></polygon> <linearGradient id="SVGID_00000082365796193287124930000003686886648005232821_" gradientUnits="userSpaceOnUse" x1="-1.8057" y1="197.5763" x2="300.5227" y2="197.5763"> <stop offset="0" style="stop-color:#00A0DB"></stop> <stop offset="1" style="stop-color:#4867E4"></stop> </linearGradient> <polygon style="fill:url(#SVGID_00000082365796193287124930000003686886648005232821_);" points="141.9,198.8 149.8,198.8 149.8,195.5 141.9,195.5 141.9,192.9 150.4,192.9 150.4,189.4 136.8,189.4 136.8,205.8 150.7,205.8 150.7,202.1 141.9,202.1 "></polygon> <linearGradient id="SVGID_00000166636557382073252020000006153649991700467086_" gradientUnits="userSpaceOnUse" x1="-1.8099" y1="197.5763" x2="300.5185" y2="197.5763"> <stop offset="0" style="stop-color:#00A0DB"></stop> <stop offset="1" style="stop-color:#4867E4"></stop> </linearGradient> <path style="fill:url(#SVGID_00000166636557382073252020000006153649991700467086_);" d="M163.3,201.4c-0.5,0.5-1.2,0.8-2.2,0.8 c-1,0-1.8-0.3-2.3-1c-0.6-0.7-0.8-1.9-0.8-3.7c0-1.5,0.2-2.6,0.7-3.2c0.6-0.9,1.5-1.4,2.6-1.4c0.5,0,1,0.1,1.4,0.3 c0.4,0.2,0.8,0.5,1,0.9c0.2,0.2,0.3,0.6,0.5,1.1l4.5-1c-0.6-1.7-1.5-3-2.6-3.9c-1.2-0.8-2.8-1.3-4.9-1.3c-2.6,0-4.7,0.7-6.1,2.2 s-2.2,3.6-2.2,6.3c0,2,0.4,3.7,1.2,5c0.8,1.3,1.8,2.2,2.9,2.7c1.1,0.5,2.6,0.8,4.4,0.8c1.5,0,2.7-0.2,3.6-0.6 c1-0.4,1.8-1.1,2.4-1.9c0.6-0.8,1.1-1.9,1.4-3.1l-4.5-1.3C164.1,200.1,163.8,200.9,163.3,201.4z"></path> <linearGradient id="SVGID_00000003785596853247874040000013508100345295919759_" gradientUnits="userSpaceOnUse" x1="-1.8099" y1="197.5763" x2="300.5185" y2="197.5763"> <stop offset="0" style="stop-color:#00A0DB"></stop> <stop offset="1" style="stop-color:#4867E4"></stop> </linearGradient> <polygon style="fill:url(#SVGID_00000003785596853247874040000013508100345295919759_);" points="181.9,195.1 176.4,195.1 176.4,189.4 171.3,189.4 171.3,205.8 176.4,205.8 176.4,199.1 181.9,199.1 181.9,205.8 187.1,205.8 187.1,189.4 181.9,189.4 "></polygon> <linearGradient id="SVGID_00000105385553456488940110000009213796779095700404_" gradientUnits="userSpaceOnUse" x1="-1.8099" y1="197.5763" x2="300.5185" y2="197.5763"> <stop offset="0" style="stop-color:#00A0DB"></stop> <stop offset="1" style="stop-color:#4867E4"></stop> </linearGradient> <polygon style="fill:url(#SVGID_00000105385553456488940110000009213796779095700404_);" points="201.4,198.5 195.2,189.4 190.5,189.4 190.5,205.8 195.2,205.8 195.2,196.8 201.4,205.8 206.2,205.8 206.2,189.4 201.4,189.4 "></polygon> <linearGradient id="SVGID_00000175320395295333314790000003431102852910677416_" gradientUnits="userSpaceOnUse" x1="-1.8099" y1="197.5763" x2="300.5185" y2="197.5763"> <stop offset="0" style="stop-color:#00A0DB"></stop> <stop offset="1" style="stop-color:#4867E4"></stop> </linearGradient> <rect x="209.8" y="189.4" style="fill:url(#SVGID_00000175320395295333314790000003431102852910677416_);" width="5.1" height="16.4"></rect> <linearGradient id="SVGID_00000074404598822971808790000012580923183435123119_" gradientUnits="userSpaceOnUse" x1="-1.8099" y1="197.5763" x2="300.5185" y2="197.5763"> <stop offset="0" style="stop-color:#00A0DB"></stop> <stop offset="1" style="stop-color:#4867E4"></stop> </linearGradient> <polygon style="fill:url(#SVGID_00000074404598822971808790000012580923183435123119_);" points="235.7,189.4 228.9,189.4 223.6,195.6 223.6,189.4 218.5,189.4 218.5,205.8 223.6,205.8 223.6,201.8 226.2,199 229.7,205.8 236,205.8 229.7,195.6 "></polygon> </g> </g> </g> <g id="Layer_2"> </g> </svg> 